<svg xmlns="http://www.w3.org/2000/svg" viewBox="0 0 476 560" preserveAspectRatio="xMidYMid slice">
  <defs>
    <linearGradient id="wall" x1="0" y1="0" x2="1" y2="1">
      <stop offset="0" stop-color="#11110f"/>
      <stop offset="0.58" stop-color="#26231f"/>
      <stop offset="1" stop-color="#0b0b0a"/>
    </linearGradient>
    <radialGradient id="glow" cx="72%" cy="29%" r="49%">
      <stop offset="0" stop-color="#fff0cb" stop-opacity="0.94"/>
      <stop offset="0.28" stop-color="#e7bd72" stop-opacity="0.36"/>
      <stop offset="0.72" stop-color="#aa7735" stop-opacity="0.08"/>
      <stop offset="1" stop-color="#000" stop-opacity="0"/>
    </radialGradient>
    <linearGradient id="beam" x1="0" y1="0" x2="0" y2="1">
      <stop offset="0" stop-color="#fff1cd" stop-opacity="0.72"/>
      <stop offset="1" stop-color="#e6b664" stop-opacity="0"/>
    </linearGradient>
    <linearGradient id="stone" x1="0" y1="0" x2="1" y2="1">
      <stop offset="0" stop-color="#d7d1c5"/>
      <stop offset="1" stop-color="#9f988b"/>
    </linearGradient>
    <filter id="blur24" x="-40%" y="-40%" width="180%" height="180%">
      <feGaussianBlur stdDeviation="24"/>
    </filter>
    <filter id="shadow" x="-40%" y="-40%" width="180%" height="180%">
      <feDropShadow dx="0" dy="12" stdDeviation="14" flood-color="#000" flood-opacity="0.38"/>
    </filter>
  </defs>

  <rect width="476" height="560" fill="url(#wall)"/>
  <rect width="476" height="560" fill="url(#glow)"/>

  <g opacity="0.14">
    <path d="M0 104H476M0 210H476M0 316H476M0 422H476" stroke="#fff" stroke-width="0.6"/>
    <path d="M95 0V560M238 0V560M381 0V560" stroke="#fff" stroke-width="0.6"/>
  </g>

  <g filter="url(#shadow)">
    <rect x="332" y="34" width="28" height="112" rx="14" fill="#050505"/>
    <ellipse cx="346" cy="145" rx="15" ry="4" fill="#f2c77c"/>
  </g>
  <path d="M318 145H374L428 405H264Z" fill="url(#beam)" opacity="0.42"/>
  <ellipse cx="347" cy="224" rx="112" ry="105" fill="#f4c978" opacity="0.18" filter="url(#blur24)"/>

  <g transform="translate(58 165)" filter="url(#shadow)">
    <rect width="156" height="112" rx="28" fill="#f4f1e9" fill-opacity="0.95"/>
    <path d="M52 112 32 137 69 116" fill="#f4f1e9" fill-opacity="0.95"/>
    <circle cx="78" cy="56" r="26" fill="none" stroke="#111" stroke-width="3"/>
    <path d="m65 57 9 9 18-21" fill="none" stroke="#111" stroke-width="4" stroke-linecap="round" stroke-linejoin="round"/>
  </g>

  <rect x="0" y="430" width="476" height="130" fill="#090908"/>
  <rect x="26" y="401" width="248" height="65" rx="5" fill="url(#stone)" filter="url(#shadow)"/>
  <rect x="53" y="377" width="92" height="43" rx="4" fill="#151513" filter="url(#shadow)"/>

  <g transform="translate(343 338)" filter="url(#shadow)">
    <path d="M17 31C17 12 29 0 47 0s30 12 30 31v76H17Z" fill="#0c0c0b"/>
    <path d="M47 0v-50M47-35l-22-18M47-23l25-20M47-10l-27 12M47-4l29 9" stroke="#9f8c60" stroke-width="2" stroke-linecap="round"/>
    <circle cx="25" cy="-53" r="3" fill="#b9a375"/>
    <circle cx="72" cy="-43" r="3" fill="#b9a375"/>
    <circle cx="20" cy="2" r="3" fill="#b9a375"/>
    <circle cx="76" cy="5" r="3" fill="#b9a375"/>
  </g>

  <rect x="0" y="0" width="476" height="560" fill="none" stroke="#fff" stroke-opacity="0.08"/>
</svg>